<svg width="77" height="77" viewBox="0 0 77 77" fill="none" xmlns="http://www.w3.org/2000/svg">
<g clip-path="url(#clip0)">
<path d="M46.7639 16.6927L46.7198 16.7998L46.7732 16.9027L75.8686 73.0416C76.5555 74.3669 75.5768 75.9278 74.1156 75.9278C73.4001 75.9278 72.7106 75.5385 72.359 74.8604L57.8663 46.8972L57.6306 46.4423L57.4171 46.908C53.9899 54.3837 46.5385 59.1553 38.3432 59.1553C30.1525 59.1553 22.6985 54.3881 19.2694 46.908L19.0559 46.4423L18.8202 46.8972L4.32744 74.8604L4.54892 74.9752L4.32743 74.8604C3.97608 75.5385 3.28626 75.9278 2.57089 75.9278C1.11084 75.9278 0.130755 74.3677 0.818043 73.0416L29.9136 16.9027L29.9669 16.7998L29.9229 16.6927C27.805 11.5397 30.8068 5.72369 36.1765 4.4069L36.367 4.3602V4.1641V2.40986C36.367 1.31837 37.2519 0.433472 38.3434 0.433472C39.4349 0.433472 40.3198 1.31837 40.3198 2.40986V4.1641V4.3602L40.5102 4.4069C45.8792 5.72355 48.8819 11.5392 46.7639 16.6927ZM21.6778 41.3837L21.6374 41.4616L21.6546 41.5477C23.2398 49.4993 30.1551 55.2025 38.3434 55.2025C46.5316 55.2025 53.447 49.4993 55.0322 41.5477L55.0494 41.4616L55.009 41.3837L44.2216 20.5696L44.0847 20.3055L43.8481 20.4858C42.8707 21.2305 41.7391 21.7815 40.5102 22.0829L40.3198 22.1297V22.3258V23.9316C40.3198 25.0231 39.4349 25.908 38.3434 25.908C37.2519 25.908 36.367 25.0231 36.367 23.9316V22.3258V22.1296L36.1765 22.0829C34.9477 21.7817 33.8161 21.2307 32.8387 20.4858L32.6021 20.3054L32.4652 20.5696L21.6778 41.3837ZM43.4914 13.2449C43.4914 10.4061 41.1822 8.09688 38.3434 8.09688C35.5044 8.09688 33.1953 10.4061 33.1953 13.2449C33.1953 16.0837 35.5046 18.393 38.3434 18.393C41.1822 18.393 43.4914 16.0837 43.4914 13.2449Z" fill="#979797" stroke="white" stroke-width="0.5"/>
</g>
<defs>
<clipPath id="clip0">
<rect width="76" height="76" fill="white" transform="translate(0.343262 0.180664)"/>
</clipPath>
</defs>
</svg>
