<svg width="90" height="90" viewBox="0 0 90 90" fill="none" xmlns="http://www.w3.org/2000/svg">
<g clip-path="url(#clip0)">
<path d="M22.4386 67.3364L29.5502 79.1629L39.2933 50.4818L10.6118 60.2245L22.4386 67.3364ZM28.8888 73.0035L24.3383 65.4364L16.7714 60.8859L35.1226 54.6523L28.8888 73.0035Z" fill="white"/>
<path d="M46.3113 24.9772H48.9187V13.5127H54.1376V0.467285H41.0923V13.5127H46.3111V24.9772H46.3113ZM43.6997 3.07471H51.5301V10.9053H43.6997V3.07471Z" fill="white"/>
<path d="M48.9186 65.642H46.3111V76.422H41.0923V89.4673H54.1376V76.4218H48.9187V65.642H48.9186ZM51.53 86.8598H43.6995V79.0292H51.53V86.8598Z" fill="white"/>
<path d="M74.9998 72.509C74.8651 66.7234 73.7282 61.6416 71.6155 57.3883C69.791 53.7155 67.2444 50.6565 64.046 48.2961C60.0401 45.3396 56.0555 44.2435 54.1376 43.861V38.4571H48.9188V27.5956H46.3114V38.4571H41.0925V43.4261C39.2578 43.0002 35.925 41.9489 32.6341 39.492C26.3679 34.8142 23.0768 27.3995 22.8395 17.4449C25.8059 16.8332 28.0431 14.2013 28.0431 11.0565C28.0431 7.46004 25.117 4.534 21.5205 4.534C17.9239 4.534 14.9978 7.46004 14.9978 11.0565C14.9978 14.2115 17.2497 16.8501 20.2306 17.4505C20.3653 23.236 21.5021 28.3179 23.6148 32.5711C25.4393 36.2439 27.9859 39.3029 31.1843 41.6633C35.1902 44.6198 39.1749 45.716 41.0927 46.0984V51.5024H46.3115V63.0452H48.919V51.5024H54.1378V46.5333C55.9726 46.9592 59.3054 48.0105 62.5963 50.4674C68.8624 55.1453 72.1535 62.5599 72.3908 72.5145C69.4244 73.1262 67.1873 75.7582 67.1873 78.9029C67.1873 82.4994 70.1133 85.4254 73.7098 85.4254C77.3065 85.4254 80.2325 82.4994 80.2325 78.9029C80.2325 75.7479 77.9808 73.1094 74.9998 72.509ZM17.6049 11.0564C17.6049 8.89743 19.3612 7.14124 21.5202 7.14124C23.6791 7.14124 25.4353 8.8976 25.4353 11.0564C25.4353 13.2151 23.6793 14.9715 21.5204 14.9715C19.3614 14.9715 17.6049 13.2153 17.6049 11.0564ZM51.5302 48.8949H43.6998V41.0645H51.5302V48.8949ZM73.7098 82.8182C71.5509 82.8182 69.7947 81.0618 69.7947 78.9031C69.7947 76.7443 71.551 74.9879 73.7098 74.9879C75.8686 74.9879 77.6251 76.7443 77.6251 78.9031C77.6251 81.0618 75.8688 82.8182 73.7098 82.8182Z" fill="white"/>
</g>
<defs>
<clipPath id="clip0">
<rect width="89" height="89" fill="white" transform="translate(0.922119 0.467285)"/>
</clipPath>
</defs>
</svg>
