<svg width="91" height="91" viewBox="0 0 91 91" fill="none" xmlns="http://www.w3.org/2000/svg">
<g clip-path="url(#clip0)">
<path d="M88.6978 83.1832H83.4526V35.409C83.4526 34.7156 83.0555 34.0836 82.4305 33.7824L63.1771 24.501V21.561C63.1736 18.5708 60.7506 16.1472 57.7598 16.1436V8.92051C57.7563 5.93039 55.3333 3.5067 52.3424 3.50317H36.0206C33.0305 3.5067 30.6068 5.93039 30.6033 8.92051V16.1436C27.6132 16.1472 25.1895 18.5708 25.1859 21.561V49.5033L7.68681 58.0581C7.06678 58.3607 6.67388 58.9907 6.67388 59.6805V83.1824H2.30968C1.31227 83.1824 0.503906 83.9908 0.503906 84.9882C0.503906 85.9856 1.31227 86.794 2.30968 86.794H88.6978C89.6953 86.794 90.5036 85.9856 90.5036 84.9882C90.5036 83.9908 89.6953 83.1824 88.6978 83.1824V83.1832ZM79.8411 36.5433V83.1824H63.1771V28.5111L79.8411 36.5433ZM34.2148 8.92051C34.2162 7.9238 35.0239 7.11614 36.0206 7.11473H52.3424C53.3391 7.11614 54.1475 7.9238 54.1482 8.92051V16.1436H34.2148V8.92051ZM30.6033 19.7552H57.7598C58.7565 19.7566 59.5649 20.5643 59.5656 21.561V83.1824H28.7975V21.561C28.7989 20.5643 29.6066 19.7566 30.6033 19.7552ZM10.2854 60.8077L25.1859 53.5232V83.1832H10.2854V60.8077Z" fill="#979797"/>
<path d="M35.8068 40.9978H53.4371C54.4345 40.9978 55.2428 40.1894 55.2428 39.192V30.2908C55.2428 29.2934 54.4345 28.485 53.4371 28.485H35.8068C34.8093 28.485 34.001 29.2934 34.001 30.2908V39.192C34.001 40.1894 34.8093 40.9978 35.8068 40.9978ZM37.6125 32.0965H51.6313V37.3862H37.6125V32.0965Z" fill="#979797"/>
<path d="M35.8068 58.6281H53.4371C54.4345 58.6281 55.2428 57.8197 55.2428 56.8223V47.9218C55.2428 46.9243 54.4345 46.116 53.4371 46.116H35.8068C34.8093 46.116 34.001 46.9243 34.001 47.9218V56.8223C34.001 57.8197 34.8093 58.6281 35.8068 58.6281ZM37.6125 49.7275H51.6313V55.0165H37.6125V49.7275Z" fill="#979797"/>
<path d="M35.8068 76.2591H53.4371C54.4345 76.2591 55.2428 75.45 55.2428 74.4533V65.5521C55.2428 64.5547 54.4345 63.7463 53.4371 63.7463H35.8068C34.8093 63.7463 34.001 64.5547 34.001 65.5521V74.4533C34.001 75.45 34.8093 76.2591 35.8068 76.2591ZM37.6125 67.3579H51.6313V72.6475H37.6125V67.3579Z" fill="#979797"/>
</g>
<defs>
<clipPath id="clip0">
<rect width="90" height="90" fill="white" transform="translate(0.503906 0.180664)"/>
</clipPath>
</defs>
</svg>
