<svg width="97" height="90" viewBox="0 0 97 90" fill="none" xmlns="http://www.w3.org/2000/svg">
<path d="M16.133 57.4215C16.9114 57.4215 17.5424 56.8268 17.5424 56.0931V46.9385C17.5424 46.2049 16.9114 45.6101 16.133 45.6101C15.3547 45.6101 14.7236 46.2049 14.7236 46.9385V56.0931C14.7236 56.8268 15.3547 57.4215 16.133 57.4215Z" fill="#979797"/>
<path d="M16.133 39.1121C16.9114 39.1121 17.5424 38.5174 17.5424 37.7838V34.1056L20.8834 32.2047C21.5497 31.8255 21.7639 31.0092 21.3616 30.381C20.9595 29.7531 20.0932 29.551 19.4266 29.9302L15.4046 32.2184C14.982 32.4589 14.7236 32.8902 14.7236 33.3557V37.7836C14.7236 38.5174 15.3547 39.1121 16.133 39.1121Z" fill="#979797"/>
<path d="M28.2908 27.768C28.5387 27.768 28.7899 27.7064 29.0179 27.5767L37.1523 22.9486C37.8186 22.5694 38.0328 21.7531 37.6305 21.1249C37.2284 20.497 36.3622 20.2949 35.6955 20.6741L27.5612 25.3022C26.8948 25.6814 26.6806 26.4977 27.0829 27.126C27.3475 27.5393 27.8133 27.768 28.2908 27.768Z" fill="#979797"/>
<path d="M59.9283 22.9562L67.9952 27.5811C68.2241 27.7123 68.4767 27.7747 68.7262 27.7747C69.202 27.7747 69.6664 27.5476 69.9317 27.1363C70.3361 26.5095 70.1251 25.6925 69.46 25.3111L61.3931 20.6863C60.7283 20.3051 59.8612 20.5042 59.4566 21.1308C59.0522 21.7578 59.2633 22.5749 59.9283 22.9562Z" fill="#979797"/>
<path d="M76.062 32.2061L79.3987 34.1192V37.8004C79.3987 38.534 80.0297 39.1288 80.808 39.1288C81.5864 39.1288 82.2174 38.534 82.2174 37.8004V33.3725C82.2174 32.9088 81.9609 32.4785 81.5403 32.2375L77.5266 29.9364C76.8616 29.5552 75.9947 29.7543 75.5901 30.3809C75.1857 31.0078 75.397 31.825 76.062 32.2061Z" fill="#979797"/>
<path d="M80.8083 45.6154C80.03 45.6154 79.3989 46.2101 79.3989 46.9437V56.0874C79.3989 56.821 80.03 57.4158 80.8083 57.4158C81.5867 57.4158 82.2177 56.821 82.2177 56.0874V46.9437C82.2177 46.2101 81.5867 45.6154 80.8083 45.6154Z" fill="#979797"/>
<path d="M67.9951 75.4503L59.9282 80.0752C59.2631 80.4565 59.0519 81.2737 59.4565 81.9003C59.7218 82.3114 60.1862 82.5387 60.662 82.5387C60.9115 82.5387 61.1643 82.4762 61.393 82.3451L69.4599 77.7202C70.1249 77.3389 70.3362 76.5217 69.9316 75.895C69.527 75.2684 68.6603 75.0688 67.9951 75.4503Z" fill="#979797"/>
<path d="M51.8615 84.7001L48.5773 86.5829L45.2864 84.7106C44.6199 84.3312 43.7536 84.5333 43.3515 85.1613C42.9491 85.7894 43.1634 86.6059 43.8297 86.9851L47.8517 89.2733C48.0757 89.4008 48.3279 89.4644 48.5801 89.4644C48.8338 89.4644 49.0876 89.3999 49.3124 89.271L53.3261 86.9699C53.9912 86.5885 54.2024 85.7713 53.7978 85.1447C53.3936 84.5181 52.5267 84.3188 51.8615 84.7001Z" fill="#979797"/>
<path d="M37.1522 80.0826L29.0176 75.4547C28.3507 75.0754 27.4848 75.2774 27.0827 75.9055C26.6803 76.5336 26.8946 77.3501 27.5609 77.7293L35.6955 82.3572C35.9234 82.4868 36.1745 82.5485 36.4225 82.5485C36.9 82.5485 37.3659 82.3196 37.6304 81.9064C38.0326 81.2783 37.8186 80.4618 37.1522 80.0826Z" fill="#979797"/>
<path d="M48.5647 35.3497C49.343 35.3497 49.974 34.7549 49.974 34.0213V33.0011C49.974 32.2675 49.343 31.6727 48.5647 31.6727C47.7863 31.6727 47.1553 32.2675 47.1553 33.0011V34.0213C47.1553 34.7549 47.7861 35.3497 48.5647 35.3497Z" fill="#979797"/>
<path d="M48.5647 42.9671C49.343 42.9671 49.974 42.3724 49.974 41.6387V40.6185C49.974 39.8849 49.343 39.2902 48.5647 39.2902C47.7863 39.2902 47.1553 39.8849 47.1553 40.6185V41.6387C47.1553 42.3724 47.7861 42.9671 48.5647 42.9671Z" fill="#979797"/>
<path d="M90.5731 70.0587C89.0673 70.0587 87.6923 70.5939 86.649 71.4723L82.2175 69.0858V65.231C82.2175 64.4974 81.5865 63.9026 80.8082 63.9026C80.0298 63.9026 79.3988 64.4974 79.3988 65.231V67.5677L74.3218 64.8335C74.323 64.8033 74.325 64.773 74.325 64.7427V38.2885C74.325 37.3751 73.8107 36.5129 72.9825 36.0378L50.0142 22.8693C50.0008 22.8617 49.9871 22.8554 49.9738 22.8479V17.2491L51.8614 18.3312C52.0903 18.4625 52.3428 18.5248 52.5924 18.5248C53.0682 18.5248 53.5326 18.2978 53.7979 17.8865C54.2023 17.2597 53.9913 16.4426 53.3262 16.0613L49.9738 14.1392V11.3996C52.5475 10.8023 54.4624 8.60964 54.4624 6.00212C54.4624 2.93675 51.8165 0.443115 48.5644 0.443115C45.3123 0.443115 42.6664 2.93693 42.6664 6.00212C42.6664 8.60964 44.5813 10.8023 47.155 11.3996V14.1543L43.8298 16.0461C43.1635 16.4253 42.9493 17.2416 43.3516 17.8699C43.7539 18.4981 44.62 18.7 45.2866 18.3206L47.155 17.2576V22.8451C47.1426 22.852 47.1297 22.8578 47.1173 22.8649L23.9664 36.0364C23.1334 36.5104 22.6159 37.3745 22.6159 38.2916V46.4683C22.6159 47.2019 23.2469 47.7966 24.0253 47.7966C24.8036 47.7966 25.4346 47.2019 25.4346 46.4683V39.908L47.1548 52.2657V77.0848L25.7139 64.8862C25.7019 64.8635 25.691 64.8405 25.6772 64.8181C25.6098 64.7071 25.5273 64.6095 25.4344 64.5245V52.1295C25.4344 51.3958 24.8034 50.8011 24.0251 50.8011C23.2467 50.8011 22.6157 51.3958 22.6157 52.1295V64.74C22.6157 64.8045 22.6189 64.8686 22.624 64.9324L17.5423 67.669V65.2477C17.5423 64.514 16.9113 63.9193 16.1329 63.9193C15.3546 63.9193 14.7235 64.514 14.7235 65.2477V69.1869L10.48 71.4721C9.43669 70.5938 8.06151 70.0585 6.55592 70.0585C3.30383 70.0587 0.657959 72.5525 0.657959 75.6179C0.657959 78.6832 3.30383 81.1769 6.55592 81.1769C9.80802 81.1769 12.4539 78.6831 12.4539 75.6179C12.4539 74.9331 12.321 74.2771 12.0797 73.6708L16.3682 71.3614L19.4264 73.1014C19.6541 73.231 19.9054 73.2927 20.1534 73.2927C20.6309 73.2927 21.0968 73.0638 21.3613 72.6506C21.7637 72.0226 21.5494 71.2061 20.8831 70.8268L19.1702 69.8523L24.2139 67.1361L47.1171 80.1664C47.2597 80.2475 47.408 80.3141 47.5598 80.3694C47.8156 80.6143 48.1709 80.7667 48.5642 80.7667C48.9592 80.7667 49.3157 80.6131 49.5716 80.3664C49.7233 80.3108 49.8716 80.2436 50.0138 80.162L59.0859 74.9608C59.7509 74.5794 59.9621 73.7622 59.5576 73.1356C59.153 72.5089 58.2859 72.3095 57.6211 72.691L49.9736 77.0755V52.2625L71.5059 39.9172V64.7301L62.808 69.7169C62.1429 70.0982 61.9319 70.9154 62.3363 71.5422C62.6016 71.9533 63.066 72.1804 63.5418 72.1804C63.7913 72.1804 64.0441 72.1179 64.273 71.9868L72.8213 67.0858L77.8554 69.7969L76.0617 70.8252C75.3967 71.2066 75.1855 72.0238 75.5901 72.6504C75.8554 73.0615 76.3197 73.2888 76.7956 73.2888C77.0451 73.2888 77.2979 73.2263 77.5266 73.0952L80.6524 71.3031L85.0491 73.6708C84.8078 74.2771 84.6749 74.933 84.6749 75.6179C84.6749 78.6832 87.3208 81.1769 90.5729 81.1769C93.825 81.1769 96.4709 78.6831 96.4709 75.6179C96.4709 72.5527 93.8254 70.0587 90.5731 70.0587ZM6.55592 78.5201C4.85809 78.5201 3.47671 77.2181 3.47671 75.6179C3.47671 74.0176 4.85809 72.7156 6.55592 72.7156C8.25375 72.7156 9.63513 74.0176 9.63513 75.6179C9.63513 77.2181 8.25375 78.5201 6.55592 78.5201ZM45.4852 6.00212C45.4852 4.40186 46.8666 3.09987 48.5644 3.09987C50.2622 3.09987 51.6436 4.40186 51.6436 6.00212C51.6436 7.60237 50.2624 8.90436 48.5646 8.90436C46.8668 8.90436 45.4852 7.60237 45.4852 6.00212ZM47.1552 25.9468V27.3446C47.1552 28.0782 47.7862 28.6729 48.5646 28.6729C49.3429 28.6729 49.974 28.0782 49.974 27.3446V25.9561L70.2038 37.5545L49.974 49.1528V47.597C49.974 46.8634 49.3429 46.2687 48.5646 46.2687C47.7862 46.2687 47.1552 46.8634 47.1552 47.597V49.1622L26.7529 37.5543L47.1552 25.9468ZM90.5731 78.5201C88.8752 78.5201 87.4939 77.2181 87.4939 75.6179C87.4939 74.0176 88.8752 72.7156 90.5731 72.7156C92.2709 72.7156 93.6523 74.0176 93.6523 75.6179C93.6523 77.2181 92.2709 78.5201 90.5731 78.5201Z" fill="#979797"/>
</svg>
