<svg width="23" height="24" viewBox="0 0 23 24" fill="none" xmlns="http://www.w3.org/2000/svg">
<path d="M11.4998 0.843231C5.14871 0.843231 0 5.9921 0 12.343C0 18.694 5.14871 23.8432 11.4998 23.8432C17.8509 23.8432 23 18.694 23 12.343C23 5.9921 17.8509 0.843231 11.4998 0.843231ZM16.4715 14.5303H11.596C11.5795 14.5303 11.5642 14.5263 11.5479 14.5257C11.5315 14.5265 11.5163 14.5303 11.4997 14.5303C11.0605 14.5303 10.7044 14.1742 10.7044 13.7349V5.61573C10.7044 5.1765 11.0605 4.82038 11.4997 4.82038C11.939 4.82038 12.2951 5.1765 12.2951 5.61573V12.9396H16.4712C16.9104 12.9396 17.2665 13.2957 17.2665 13.7349C17.2665 14.1742 16.9107 14.5303 16.4715 14.5303Z" fill="white"/>
</svg>
