<svg width="23" height="23" viewBox="0 0 23 23" fill="none" xmlns="http://www.w3.org/2000/svg">
<path d="M13.0101 11.0292L22.4406 1.59866C22.8045 1.24714 22.8146 0.66714 22.4631 0.303163C22.1116 -0.0608141 21.5316 -0.0709067 21.1676 0.280616C21.16 0.28797 21.1525 0.295486 21.1451 0.303163L11.7145 9.73366L2.28399 0.303109C1.92001 -0.0484131 1.34001 -0.0383205 0.988487 0.325657C0.645554 0.680722 0.645554 1.2436 0.988487 1.59866L10.419 11.0292L0.988487 20.4597C0.630791 20.8174 0.630791 21.3974 0.988487 21.7552C1.34624 22.1128 1.92624 22.1128 2.28399 21.7552L11.7145 12.3247L21.145 21.7552C21.509 22.1067 22.089 22.0966 22.4405 21.7326C22.7834 21.3775 22.7834 20.8147 22.4405 20.4597L13.0101 11.0292Z" fill="white"/>
</svg>
