<svg width="21" height="22" viewBox="0 0 21 22" fill="none" xmlns="http://www.w3.org/2000/svg">
<path d="M20.3236 10.5066L11.022 1.1714C10.8265 0.977319 10.5658 0.870575 10.2865 0.870575C10.0071 0.870575 9.74644 0.977319 9.55091 1.1714L0.258689 10.5066C-0.0485684 10.8171 -0.0206359 11.0889 0.0352292 11.215C0.0817834 11.3412 0.230757 11.5643 0.668367 11.5643H1.71118V19.8709C1.71118 20.7346 2.42812 21.4624 3.23816 21.4624H7.94945V15.8341H12.5118V21.4624H17.3534C18.1634 21.4624 18.8431 20.7152 18.8431 19.8709V11.5643H19.9232C20.3515 11.5643 20.5005 11.3412 20.5563 11.215C20.5936 11.0889 20.6308 10.8268 20.3236 10.5066Z" fill="#BDC2CA"/>
</svg>
