<svg width="22" height="22" viewBox="0 0 22 22" fill="none" xmlns="http://www.w3.org/2000/svg">
<path d="M10.6035 1.96552C13.4161 1.96552 13.7462 1.97806 14.8579 2.02821C15.886 2.07418 16.4418 2.24552 16.8137 2.39179C17.3069 2.58403 17.6579 2.80971 18.0257 3.17748C18.3935 3.54524 18.6233 3.89629 18.8114 4.38943C18.9535 4.76138 19.129 5.31721 19.175 6.34528C19.2251 7.45694 19.2377 7.7871 19.2377 10.5997C19.2377 13.4123 19.2251 13.7424 19.175 14.8541C19.129 15.8821 18.9577 16.438 18.8114 16.8099C18.6192 17.3031 18.3935 17.6541 18.0257 18.0219C17.6579 18.3896 17.3069 18.6195 16.8137 18.8076C16.4418 18.9496 15.886 19.1252 14.8579 19.1711C13.7462 19.2213 13.4161 19.2338 10.6035 19.2338C7.79092 19.2338 7.46077 19.2213 6.34911 19.1711C5.32103 19.1252 4.7652 18.9538 4.39325 18.8076C3.90011 18.6153 3.54906 18.3896 3.1813 18.0219C2.81353 17.6541 2.58367 17.3031 2.39561 16.8099C2.25352 16.438 2.07799 15.8821 2.03202 14.8541C1.98187 13.7424 1.96934 13.4123 1.96934 10.5997C1.96934 7.7871 1.98187 7.45694 2.03202 6.34528C2.07799 5.31721 2.24934 4.76138 2.39561 4.38943C2.58785 3.89629 2.81353 3.54524 3.1813 3.17748C3.54906 2.80971 3.90011 2.57985 4.39325 2.39179C4.7652 2.2497 5.32103 2.07418 6.34911 2.02821C7.46077 1.97388 7.7951 1.96552 10.6035 1.96552ZM10.6035 0.0681763C7.74495 0.0681763 7.38554 0.0807138 6.26134 0.130864C5.14133 0.181014 4.37654 0.360718 3.70787 0.619826C3.01413 0.887293 2.42904 1.25088 1.84396 1.83596C1.25888 2.42105 0.899468 3.01031 0.627822 3.69987C0.368714 4.36854 0.189009 5.13333 0.138859 6.25752C0.0887094 7.37754 0.0761719 7.73695 0.0761719 10.5955C0.0761719 13.454 0.0887094 13.8135 0.138859 14.9376C0.189009 16.0577 0.368714 16.8225 0.627822 17.4953C0.895289 18.189 1.25888 18.7741 1.84396 19.3592C2.42904 19.9443 3.01831 20.3037 3.70787 20.5753C4.37654 20.8345 5.14133 21.0142 6.26552 21.0643C7.38972 21.1145 7.74495 21.127 10.6077 21.127C13.4704 21.127 13.8256 21.1145 14.9498 21.0643C16.0699 21.0142 16.8346 20.8345 17.5075 20.5753C18.2012 20.3079 18.7863 19.9443 19.3714 19.3592C19.9565 18.7741 20.3159 18.1849 20.5875 17.4953C20.8466 16.8266 21.0264 16.0618 21.0765 14.9376C21.1267 13.8135 21.1392 13.4582 21.1392 10.5955C21.1392 7.73277 21.1267 7.37754 21.0765 6.25334C21.0264 5.13333 20.8466 4.36854 20.5875 3.69569C20.3201 3.00195 19.9565 2.41687 19.3714 1.83178C18.7863 1.2467 18.1971 0.887293 17.5075 0.615647C16.8388 0.356539 16.074 0.176835 14.9498 0.126685C13.8215 0.0807138 13.4621 0.0681763 10.6035 0.0681763Z" fill="#BDC2CA"/>
<path d="M10.6034 5.19182C7.61947 5.19182 5.19556 7.61155 5.19556 10.5997C5.19556 13.5878 7.61529 16.0075 10.6034 16.0075C13.5915 16.0075 16.0112 13.5878 16.0112 10.5997C16.0112 7.61155 13.5915 5.19182 10.6034 5.19182ZM10.6034 14.106C8.66426 14.106 7.0929 12.5346 7.0929 10.5955C7.0929 8.65634 8.66426 7.08498 10.6034 7.08498C12.5425 7.08498 14.1139 8.65634 14.1139 10.5955C14.1139 12.5346 12.5425 14.106 10.6034 14.106Z" fill="#BDC2CA"/>
<path d="M16.2245 6.23659C16.9216 6.23659 17.4866 5.67152 17.4866 4.97448C17.4866 4.27744 16.9216 3.71237 16.2245 3.71237C15.5275 3.71237 14.9624 4.27744 14.9624 4.97448C14.9624 5.67152 15.5275 6.23659 16.2245 6.23659Z" fill="#BDC2CA"/>
</svg>
