<svg width="19" height="16" viewBox="0 0 19 16" fill="none" xmlns="http://www.w3.org/2000/svg">
<path fill-rule="evenodd" clip-rule="evenodd" d="M13.8235 0.240234C14.9843 0.240234 16.1009 0.682556 16.9223 1.47624C17.7446 2.26826 18.2042 3.33653 18.2042 4.45486V11.0481C18.2042 13.3765 16.2394 15.2627 13.8235 15.2627H5.27243C2.85659 15.2627 0.892578 13.3765 0.892578 11.0481V4.45486C0.892578 2.12639 2.84793 0.240234 5.27243 0.240234H13.8235ZM15.2011 5.69788L15.2703 5.63112C15.4772 5.38908 15.4772 5.03856 15.2608 4.79652C15.1405 4.67218 14.9751 4.59624 14.8029 4.57954C14.6211 4.57036 14.448 4.62961 14.3173 4.74646L10.4144 7.75095C9.91234 8.15237 9.19304 8.15237 8.68321 7.75095L4.78809 4.74646C4.51889 4.5545 4.14669 4.57954 3.92251 4.80487C3.6888 5.03021 3.66283 5.38908 3.86105 5.63947L3.97444 5.74796L7.91284 8.71072C8.39757 9.07793 8.9853 9.27823 9.60073 9.27823C10.2144 9.27823 10.8125 9.07793 11.2964 8.71072L15.2011 5.69788Z" fill="white"/>
</svg>
