<svg width="16" height="22" viewBox="0 0 16 22" fill="none" xmlns="http://www.w3.org/2000/svg">
<path d="M8.22558 0.220901C4.23412 0.220901 0.986816 3.46821 0.986816 7.45967V7.48716C0.986816 8.91794 1.37054 10.3259 2.09648 11.5588L7.64083 20.9752C7.75156 21.1633 7.95317 21.279 8.17139 21.2797H8.17353C8.39088 21.2797 8.5924 21.1655 8.70404 20.9789L14.3264 11.579C15.0709 10.3344 15.4643 8.90995 15.4643 7.45967C15.4643 3.46821 12.217 0.220901 8.22558 0.220901V0.220901ZM8.17357 10.7047C6.45501 10.7047 5.06185 9.31155 5.06185 7.59299C5.06185 5.87443 6.45501 4.48127 8.17357 4.48127C9.89213 4.48127 11.2853 5.87443 11.2853 7.59299C11.2853 9.31151 9.89213 10.7047 8.17357 10.7047Z" fill="#BDC2CA"/>
</svg>
