<svg width="24" height="29" viewBox="0 0 24 29" fill="none" xmlns="http://www.w3.org/2000/svg">
<path d="M11.9997 0.772614C9.13838 0.772614 6.81055 3.10045 6.81055 5.96173C6.81055 8.82301 9.13838 11.1508 11.9997 11.1508C14.8609 11.1508 17.1888 8.82301 17.1888 5.96173C17.1888 3.10045 14.8609 0.772614 11.9997 0.772614Z" fill="white"/>
<path d="M20.9582 19.8763C18.987 17.8749 16.3738 16.7726 13.6 16.7726H10.4C7.62624 16.7726 5.01301 17.8749 3.04181 19.8763C1.08027 21.868 0 24.497 0 27.2793C0 27.7211 0.358187 28.0793 0.8 28.0793H23.2C23.6418 28.0793 24 27.7211 24 27.2793C24 24.497 22.9197 21.868 20.9582 19.8763Z" fill="white"/>
</svg>
