<svg width="24" height="18" viewBox="0 0 24 18" fill="none" xmlns="http://www.w3.org/2000/svg">
<path d="M22.8165 3.08464C22.5562 2.04722 21.7755 1.2282 20.7867 0.94154C19.0041 0.436478 11.8477 0.436478 11.8477 0.436478C11.8477 0.436478 4.69129 0.436478 2.89569 0.94154C1.90681 1.21455 1.13912 2.03357 0.865879 3.08464C0.397461 4.96839 0.397461 8.89969 0.397461 8.89969C0.397461 8.89969 0.397461 12.831 0.878891 14.7147C1.13912 15.7522 1.91982 16.5712 2.9087 16.8578C4.69129 17.3629 11.8477 17.3629 11.8477 17.3629C11.8477 17.3629 19.0041 17.3629 20.7997 16.8578C21.7886 16.5848 22.5562 15.7658 22.8295 14.7147C23.2979 12.831 23.2979 8.89969 23.2979 8.89969C23.2979 8.89969 23.2979 4.96839 22.8165 3.08464Z" fill="#BDC2CA"/>
<path d="M9.50562 12.4761L15.491 8.89968L9.50562 5.32329V12.4761Z" fill="white"/>
</svg>
