<svg display="none" width="0" height="0" version="1.1" baseProfile="full" xmlns="http://www.w3.org/2000/svg" xmlns:xlink="http://www.w3.org/1999/xlink">
	<symbol id="phone" viewBox="0 0 18 16">
		<path fill-rule="evenodd" clip-rule="evenodd" d="M8.45243 8.31539C11.8755 11.5483 12.6521 7.80818 14.8316 9.86571C16.9328 11.8502 18.1405 12.2478 15.4782 14.762C15.1448 15.0152 13.0261 18.061 5.5802 11.0289C-1.8666 3.99588 1.35568 1.99228 1.62374 1.67735C4.29239 -0.84389 4.706 0.30363 6.80721 2.28808C8.98671 4.34648 5.02933 5.0825 8.45243 8.31539Z" />
	</symbol>

	<symbol id="point" viewBox="0 0 16 22">
		<path d="M8.22558 0.220901C4.23412 0.220901 0.986816 3.46821 0.986816 7.45967V7.48716C0.986816 8.91794 1.37054 10.3259 2.09648 11.5588L7.64083 20.9752C7.75156 21.1633 7.95317 21.279 8.17139 21.2797H8.17353C8.39088 21.2797 8.5924 21.1655 8.70404 20.9789L14.3264 11.579C15.0709 10.3344 15.4643 8.90995 15.4643 7.45967C15.4643 3.46821 12.217 0.220901 8.22558 0.220901V0.220901ZM8.17357 10.7047C6.45501 10.7047 5.06185 9.31155 5.06185 7.59299C5.06185 5.87443 6.45501 4.48127 8.17357 4.48127C9.89213 4.48127 11.2853 5.87443 11.2853 7.59299C11.2853 9.31151 9.89213 10.7047 8.17357 10.7047Z"/>
	</symbol>

	<symbol id="whatsapp" viewBox="-274 420.9 46 46">
		<path d="M-251 420.9c-12.7 0-23 10.3-23 23 0 5 1.6 9.7 4.4 13.5l-2.9 8.5 8.8-2.8c3.7 2.4 8 3.8 12.7 3.8 12.7 0 23-10.3 23-23s-10.3-23-23-23zm13.4 32.5c-.6 1.6-2.8 2.9-4.5 3.2-1.2.3-2.8.5-8.1-1.7-6.8-2.8-11.1-9.7-11.5-10.1-.3-.4-2.7-3.6-2.7-6.9s1.7-4.9 2.4-5.6c.6-.6 1.5-.8 2.4-.8h.8c.7 0 1 .1 1.5 1.1.6 1.3 1.9 4.6 2.1 5 .2.3.3.8.1 1.2-.2.5-.4.7-.7 1.1s-.7.7-1 1.1c-.3.4-.7.8-.3 1.4.4.7 1.7 2.9 3.7 4.6 2.6 2.3 4.6 3 5.4 3.3.6.2 1.2.2 1.6-.3.5-.6 1.1-1.5 1.8-2.4.5-.6 1-.7 1.7-.5.6.2 3.9 1.8 4.6 2.2.7.3 1.1.5 1.3.8-.1.4-.1 1.7-.6 3.3z"/>
	</symbol>

	<symbol id="instagram" viewBox="0 0 22 22">
		<path d="M10.6035 1.96552C13.4161 1.96552 13.7462 1.97806 14.8579 2.02821C15.886 2.07418 16.4418 2.24552 16.8137 2.39179C17.3069 2.58403 17.6579 2.80971 18.0257 3.17748C18.3935 3.54524 18.6233 3.89629 18.8114 4.38943C18.9535 4.76138 19.129 5.31721 19.175 6.34528C19.2251 7.45694 19.2377 7.7871 19.2377 10.5997C19.2377 13.4123 19.2251 13.7424 19.175 14.8541C19.129 15.8821 18.9577 16.438 18.8114 16.8099C18.6192 17.3031 18.3935 17.6541 18.0257 18.0219C17.6579 18.3896 17.3069 18.6195 16.8137 18.8076C16.4418 18.9496 15.886 19.1252 14.8579 19.1711C13.7462 19.2213 13.4161 19.2338 10.6035 19.2338C7.79092 19.2338 7.46077 19.2213 6.34911 19.1711C5.32103 19.1252 4.7652 18.9538 4.39325 18.8076C3.90011 18.6153 3.54906 18.3896 3.1813 18.0219C2.81353 17.6541 2.58367 17.3031 2.39561 16.8099C2.25352 16.438 2.07799 15.8821 2.03202 14.8541C1.98187 13.7424 1.96934 13.4123 1.96934 10.5997C1.96934 7.7871 1.98187 7.45694 2.03202 6.34528C2.07799 5.31721 2.24934 4.76138 2.39561 4.38943C2.58785 3.89629 2.81353 3.54524 3.1813 3.17748C3.54906 2.80971 3.90011 2.57985 4.39325 2.39179C4.7652 2.2497 5.32103 2.07418 6.34911 2.02821C7.46077 1.97388 7.7951 1.96552 10.6035 1.96552ZM10.6035 0.0681763C7.74495 0.0681763 7.38554 0.0807138 6.26134 0.130864C5.14133 0.181014 4.37654 0.360718 3.70787 0.619826C3.01413 0.887293 2.42904 1.25088 1.84396 1.83596C1.25888 2.42105 0.899468 3.01031 0.627822 3.69987C0.368714 4.36854 0.189009 5.13333 0.138859 6.25752C0.0887094 7.37754 0.0761719 7.73695 0.0761719 10.5955C0.0761719 13.454 0.0887094 13.8135 0.138859 14.9376C0.189009 16.0577 0.368714 16.8225 0.627822 17.4953C0.895289 18.189 1.25888 18.7741 1.84396 19.3592C2.42904 19.9443 3.01831 20.3037 3.70787 20.5753C4.37654 20.8345 5.14133 21.0142 6.26552 21.0643C7.38972 21.1145 7.74495 21.127 10.6077 21.127C13.4704 21.127 13.8256 21.1145 14.9498 21.0643C16.0699 21.0142 16.8346 20.8345 17.5075 20.5753C18.2012 20.3079 18.7863 19.9443 19.3714 19.3592C19.9565 18.7741 20.3159 18.1849 20.5875 17.4953C20.8466 16.8266 21.0264 16.0618 21.0765 14.9376C21.1267 13.8135 21.1392 13.4582 21.1392 10.5955C21.1392 7.73277 21.1267 7.37754 21.0765 6.25334C21.0264 5.13333 20.8466 4.36854 20.5875 3.69569C20.3201 3.00195 19.9565 2.41687 19.3714 1.83178C18.7863 1.2467 18.1971 0.887293 17.5075 0.615647C16.8388 0.356539 16.074 0.176835 14.9498 0.126685C13.8215 0.0807138 13.4621 0.0681763 10.6035 0.0681763Z"/>
		<path d="M10.6034 5.19182C7.61947 5.19182 5.19556 7.61155 5.19556 10.5997C5.19556 13.5878 7.61529 16.0075 10.6034 16.0075C13.5915 16.0075 16.0112 13.5878 16.0112 10.5997C16.0112 7.61155 13.5915 5.19182 10.6034 5.19182ZM10.6034 14.106C8.66426 14.106 7.0929 12.5346 7.0929 10.5955C7.0929 8.65634 8.66426 7.08498 10.6034 7.08498C12.5425 7.08498 14.1139 8.65634 14.1139 10.5955C14.1139 12.5346 12.5425 14.106 10.6034 14.106Z" />
		<path d="M16.2245 6.23659C16.9216 6.23659 17.4866 5.67152 17.4866 4.97448C17.4866 4.27744 16.9216 3.71237 16.2245 3.71237C15.5275 3.71237 14.9624 4.27744 14.9624 4.97448C14.9624 5.67152 15.5275 6.23659 16.2245 6.23659Z" />
	</symbol>

	<symbol id="youtube" viewBox="-479 284 20 14">
		<path d="M-459.8 285.2c-.7-.9-2.1-1.2-4.6-1.2h-9.2c-2.6 0-4 .4-4.7 1.3-.7.9-.7 2.2-.7 4v3.4c0 3.5.8 5.3 5.4 5.3h9.2c2.2 0 3.4-.3 4.2-1.1.8-.8 1.2-2 1.2-4.2v-3.4c0-1.9-.1-3.2-.8-4.1zm-6.4 6.3l-4.2 2.2-.3.1c-.1 0-.2 0-.3-.1-.2-.1-.3-.3-.3-.5v-4.3c0-.2.1-.4.3-.5.2-.1.4-.1.6 0l4.2 2.2c.2.1.3.3.3.6.1-.1 0 .2-.3.3z"/>
	</symbol>

	<symbol id="benefit1" viewBox="0 0 91 91">
		<g clip-path="url(#clip0)">
			<path d="M88.6978 83.1832H83.4526V35.409C83.4526 34.7156 83.0555 34.0836 82.4305 33.7824L63.1771 24.501V21.561C63.1736 18.5708 60.7506 16.1472 57.7598 16.1436V8.92051C57.7563 5.93039 55.3333 3.5067 52.3424 3.50317H36.0206C33.0305 3.5067 30.6068 5.93039 30.6033 8.92051V16.1436C27.6132 16.1472 25.1895 18.5708 25.1859 21.561V49.5033L7.68681 58.0581C7.06678 58.3607 6.67388 58.9907 6.67388 59.6805V83.1824H2.30968C1.31227 83.1824 0.503906 83.9908 0.503906 84.9882C0.503906 85.9856 1.31227 86.794 2.30968 86.794H88.6978C89.6953 86.794 90.5036 85.9856 90.5036 84.9882C90.5036 83.9908 89.6953 83.1824 88.6978 83.1824V83.1832ZM79.8411 36.5433V83.1824H63.1771V28.5111L79.8411 36.5433ZM34.2148 8.92051C34.2162 7.9238 35.0239 7.11614 36.0206 7.11473H52.3424C53.3391 7.11614 54.1475 7.9238 54.1482 8.92051V16.1436H34.2148V8.92051ZM30.6033 19.7552H57.7598C58.7565 19.7566 59.5649 20.5643 59.5656 21.561V83.1824H28.7975V21.561C28.7989 20.5643 29.6066 19.7566 30.6033 19.7552ZM10.2854 60.8077L25.1859 53.5232V83.1832H10.2854V60.8077Z" />
			<path d="M35.8068 40.9978H53.4371C54.4345 40.9978 55.2428 40.1894 55.2428 39.192V30.2908C55.2428 29.2934 54.4345 28.485 53.4371 28.485H35.8068C34.8093 28.485 34.001 29.2934 34.001 30.2908V39.192C34.001 40.1894 34.8093 40.9978 35.8068 40.9978ZM37.6125 32.0965H51.6313V37.3862H37.6125V32.0965Z" />
			<path d="M35.8068 58.6281H53.4371C54.4345 58.6281 55.2428 57.8197 55.2428 56.8223V47.9218C55.2428 46.9243 54.4345 46.116 53.4371 46.116H35.8068C34.8093 46.116 34.001 46.9243 34.001 47.9218V56.8223C34.001 57.8197 34.8093 58.6281 35.8068 58.6281ZM37.6125 49.7275H51.6313V55.0165H37.6125V49.7275Z" />
			<path d="M35.8068 76.2591H53.4371C54.4345 76.2591 55.2428 75.45 55.2428 74.4533V65.5521C55.2428 64.5547 54.4345 63.7463 53.4371 63.7463H35.8068C34.8093 63.7463 34.001 64.5547 34.001 65.5521V74.4533C34.001 75.45 34.8093 76.2591 35.8068 76.2591ZM37.6125 67.3579H51.6313V72.6475H37.6125V67.3579Z" />
		</g>
		<defs>
			<clipPath id="clip0">
				<rect width="90" height="90" fill="white" transform="translate(0.503906 0.180664)"/>
			</clipPath>
		</defs>
	</symbol>

	<symbol id="benefit2" viewBox="0 0 77 77">
		<g clip-path="url(#clip0)">
			<path d="M46.7639 16.6927L46.7198 16.7998L46.7732 16.9027L75.8686 73.0416C76.5555 74.3669 75.5768 75.9278 74.1156 75.9278C73.4001 75.9278 72.7106 75.5385 72.359 74.8604L57.8663 46.8972L57.6306 46.4423L57.4171 46.908C53.9899 54.3837 46.5385 59.1553 38.3432 59.1553C30.1525 59.1553 22.6985 54.3881 19.2694 46.908L19.0559 46.4423L18.8202 46.8972L4.32744 74.8604L4.54892 74.9752L4.32743 74.8604C3.97608 75.5385 3.28626 75.9278 2.57089 75.9278C1.11084 75.9278 0.130755 74.3677 0.818043 73.0416L29.9136 16.9027L29.9669 16.7998L29.9229 16.6927C27.805 11.5397 30.8068 5.72369 36.1765 4.4069L36.367 4.3602V4.1641V2.40986C36.367 1.31837 37.2519 0.433472 38.3434 0.433472C39.4349 0.433472 40.3198 1.31837 40.3198 2.40986V4.1641V4.3602L40.5102 4.4069C45.8792 5.72355 48.8819 11.5392 46.7639 16.6927ZM21.6778 41.3837L21.6374 41.4616L21.6546 41.5477C23.2398 49.4993 30.1551 55.2025 38.3434 55.2025C46.5316 55.2025 53.447 49.4993 55.0322 41.5477L55.0494 41.4616L55.009 41.3837L44.2216 20.5696L44.0847 20.3055L43.8481 20.4858C42.8707 21.2305 41.7391 21.7815 40.5102 22.0829L40.3198 22.1297V22.3258V23.9316C40.3198 25.0231 39.4349 25.908 38.3434 25.908C37.2519 25.908 36.367 25.0231 36.367 23.9316V22.3258V22.1296L36.1765 22.0829C34.9477 21.7817 33.8161 21.2307 32.8387 20.4858L32.6021 20.3054L32.4652 20.5696L21.6778 41.3837ZM43.4914 13.2449C43.4914 10.4061 41.1822 8.09688 38.3434 8.09688C35.5044 8.09688 33.1953 10.4061 33.1953 13.2449C33.1953 16.0837 35.5046 18.393 38.3434 18.393C41.1822 18.393 43.4914 16.0837 43.4914 13.2449Z" />
		</g>
		<defs>
			<clipPath id="clip0">
				<rect width="76" height="76" fill="white" transform="translate(0.343262 0.180664)"/>
			</clipPath>
		</defs>
	</symbol>

	<symbol id="benefit3" viewBox="0 0 97 90">
		<path d="M16.133 57.4215C16.9114 57.4215 17.5424 56.8268 17.5424 56.0931V46.9385C17.5424 46.2049 16.9114 45.6101 16.133 45.6101C15.3547 45.6101 14.7236 46.2049 14.7236 46.9385V56.0931C14.7236 56.8268 15.3547 57.4215 16.133 57.4215Z" />
		<path d="M16.133 39.1121C16.9114 39.1121 17.5424 38.5174 17.5424 37.7838V34.1056L20.8834 32.2047C21.5497 31.8255 21.7639 31.0092 21.3616 30.381C20.9595 29.7531 20.0932 29.551 19.4266 29.9302L15.4046 32.2184C14.982 32.4589 14.7236 32.8902 14.7236 33.3557V37.7836C14.7236 38.5174 15.3547 39.1121 16.133 39.1121Z" />
		<path d="M28.2908 27.768C28.5387 27.768 28.7899 27.7064 29.0179 27.5767L37.1523 22.9486C37.8186 22.5694 38.0328 21.7531 37.6305 21.1249C37.2284 20.497 36.3622 20.2949 35.6955 20.6741L27.5612 25.3022C26.8948 25.6814 26.6806 26.4977 27.0829 27.126C27.3475 27.5393 27.8133 27.768 28.2908 27.768Z" />
		<path d="M59.9283 22.9562L67.9952 27.5811C68.2241 27.7123 68.4767 27.7747 68.7262 27.7747C69.202 27.7747 69.6664 27.5476 69.9317 27.1363C70.3361 26.5095 70.1251 25.6925 69.46 25.3111L61.3931 20.6863C60.7283 20.3051 59.8612 20.5042 59.4566 21.1308C59.0522 21.7578 59.2633 22.5749 59.9283 22.9562Z" />
		<path d="M76.062 32.2061L79.3987 34.1192V37.8004C79.3987 38.534 80.0297 39.1288 80.808 39.1288C81.5864 39.1288 82.2174 38.534 82.2174 37.8004V33.3725C82.2174 32.9088 81.9609 32.4785 81.5403 32.2375L77.5266 29.9364C76.8616 29.5552 75.9947 29.7543 75.5901 30.3809C75.1857 31.0078 75.397 31.825 76.062 32.2061Z" />
		<path d="M80.8083 45.6154C80.03 45.6154 79.3989 46.2101 79.3989 46.9437V56.0874C79.3989 56.821 80.03 57.4158 80.8083 57.4158C81.5867 57.4158 82.2177 56.821 82.2177 56.0874V46.9437C82.2177 46.2101 81.5867 45.6154 80.8083 45.6154Z" />
		<path d="M67.9951 75.4503L59.9282 80.0752C59.2631 80.4565 59.0519 81.2737 59.4565 81.9003C59.7218 82.3114 60.1862 82.5387 60.662 82.5387C60.9115 82.5387 61.1643 82.4762 61.393 82.3451L69.4599 77.7202C70.1249 77.3389 70.3362 76.5217 69.9316 75.895C69.527 75.2684 68.6603 75.0688 67.9951 75.4503Z" />
		<path d="M51.8615 84.7001L48.5773 86.5829L45.2864 84.7106C44.6199 84.3312 43.7536 84.5333 43.3515 85.1613C42.9491 85.7894 43.1634 86.6059 43.8297 86.9851L47.8517 89.2733C48.0757 89.4008 48.3279 89.4644 48.5801 89.4644C48.8338 89.4644 49.0876 89.3999 49.3124 89.271L53.3261 86.9699C53.9912 86.5885 54.2024 85.7713 53.7978 85.1447C53.3936 84.5181 52.5267 84.3188 51.8615 84.7001Z" />
		<path d="M37.1522 80.0826L29.0176 75.4547C28.3507 75.0754 27.4848 75.2774 27.0827 75.9055C26.6803 76.5336 26.8946 77.3501 27.5609 77.7293L35.6955 82.3572C35.9234 82.4868 36.1745 82.5485 36.4225 82.5485C36.9 82.5485 37.3659 82.3196 37.6304 81.9064C38.0326 81.2783 37.8186 80.4618 37.1522 80.0826Z" />
		<path d="M48.5647 35.3497C49.343 35.3497 49.974 34.7549 49.974 34.0213V33.0011C49.974 32.2675 49.343 31.6727 48.5647 31.6727C47.7863 31.6727 47.1553 32.2675 47.1553 33.0011V34.0213C47.1553 34.7549 47.7861 35.3497 48.5647 35.3497Z" />
		<path d="M48.5647 42.9671C49.343 42.9671 49.974 42.3724 49.974 41.6387V40.6185C49.974 39.8849 49.343 39.2902 48.5647 39.2902C47.7863 39.2902 47.1553 39.8849 47.1553 40.6185V41.6387C47.1553 42.3724 47.7861 42.9671 48.5647 42.9671Z" />
		<path d="M90.5731 70.0587C89.0673 70.0587 87.6923 70.5939 86.649 71.4723L82.2175 69.0858V65.231C82.2175 64.4974 81.5865 63.9026 80.8082 63.9026C80.0298 63.9026 79.3988 64.4974 79.3988 65.231V67.5677L74.3218 64.8335C74.323 64.8033 74.325 64.773 74.325 64.7427V38.2885C74.325 37.3751 73.8107 36.5129 72.9825 36.0378L50.0142 22.8693C50.0008 22.8617 49.9871 22.8554 49.9738 22.8479V17.2491L51.8614 18.3312C52.0903 18.4625 52.3428 18.5248 52.5924 18.5248C53.0682 18.5248 53.5326 18.2978 53.7979 17.8865C54.2023 17.2597 53.9913 16.4426 53.3262 16.0613L49.9738 14.1392V11.3996C52.5475 10.8023 54.4624 8.60964 54.4624 6.00212C54.4624 2.93675 51.8165 0.443115 48.5644 0.443115C45.3123 0.443115 42.6664 2.93693 42.6664 6.00212C42.6664 8.60964 44.5813 10.8023 47.155 11.3996V14.1543L43.8298 16.0461C43.1635 16.4253 42.9493 17.2416 43.3516 17.8699C43.7539 18.4981 44.62 18.7 45.2866 18.3206L47.155 17.2576V22.8451C47.1426 22.852 47.1297 22.8578 47.1173 22.8649L23.9664 36.0364C23.1334 36.5104 22.6159 37.3745 22.6159 38.2916V46.4683C22.6159 47.2019 23.2469 47.7966 24.0253 47.7966C24.8036 47.7966 25.4346 47.2019 25.4346 46.4683V39.908L47.1548 52.2657V77.0848L25.7139 64.8862C25.7019 64.8635 25.691 64.8405 25.6772 64.8181C25.6098 64.7071 25.5273 64.6095 25.4344 64.5245V52.1295C25.4344 51.3958 24.8034 50.8011 24.0251 50.8011C23.2467 50.8011 22.6157 51.3958 22.6157 52.1295V64.74C22.6157 64.8045 22.6189 64.8686 22.624 64.9324L17.5423 67.669V65.2477C17.5423 64.514 16.9113 63.9193 16.1329 63.9193C15.3546 63.9193 14.7235 64.514 14.7235 65.2477V69.1869L10.48 71.4721C9.43669 70.5938 8.06151 70.0585 6.55592 70.0585C3.30383 70.0587 0.657959 72.5525 0.657959 75.6179C0.657959 78.6832 3.30383 81.1769 6.55592 81.1769C9.80802 81.1769 12.4539 78.6831 12.4539 75.6179C12.4539 74.9331 12.321 74.2771 12.0797 73.6708L16.3682 71.3614L19.4264 73.1014C19.6541 73.231 19.9054 73.2927 20.1534 73.2927C20.6309 73.2927 21.0968 73.0638 21.3613 72.6506C21.7637 72.0226 21.5494 71.2061 20.8831 70.8268L19.1702 69.8523L24.2139 67.1361L47.1171 80.1664C47.2597 80.2475 47.408 80.3141 47.5598 80.3694C47.8156 80.6143 48.1709 80.7667 48.5642 80.7667C48.9592 80.7667 49.3157 80.6131 49.5716 80.3664C49.7233 80.3108 49.8716 80.2436 50.0138 80.162L59.0859 74.9608C59.7509 74.5794 59.9621 73.7622 59.5576 73.1356C59.153 72.5089 58.2859 72.3095 57.6211 72.691L49.9736 77.0755V52.2625L71.5059 39.9172V64.7301L62.808 69.7169C62.1429 70.0982 61.9319 70.9154 62.3363 71.5422C62.6016 71.9533 63.066 72.1804 63.5418 72.1804C63.7913 72.1804 64.0441 72.1179 64.273 71.9868L72.8213 67.0858L77.8554 69.7969L76.0617 70.8252C75.3967 71.2066 75.1855 72.0238 75.5901 72.6504C75.8554 73.0615 76.3197 73.2888 76.7956 73.2888C77.0451 73.2888 77.2979 73.2263 77.5266 73.0952L80.6524 71.3031L85.0491 73.6708C84.8078 74.2771 84.6749 74.933 84.6749 75.6179C84.6749 78.6832 87.3208 81.1769 90.5729 81.1769C93.825 81.1769 96.4709 78.6831 96.4709 75.6179C96.4709 72.5527 93.8254 70.0587 90.5731 70.0587ZM6.55592 78.5201C4.85809 78.5201 3.47671 77.2181 3.47671 75.6179C3.47671 74.0176 4.85809 72.7156 6.55592 72.7156C8.25375 72.7156 9.63513 74.0176 9.63513 75.6179C9.63513 77.2181 8.25375 78.5201 6.55592 78.5201ZM45.4852 6.00212C45.4852 4.40186 46.8666 3.09987 48.5644 3.09987C50.2622 3.09987 51.6436 4.40186 51.6436 6.00212C51.6436 7.60237 50.2624 8.90436 48.5646 8.90436C46.8668 8.90436 45.4852 7.60237 45.4852 6.00212ZM47.1552 25.9468V27.3446C47.1552 28.0782 47.7862 28.6729 48.5646 28.6729C49.3429 28.6729 49.974 28.0782 49.974 27.3446V25.9561L70.2038 37.5545L49.974 49.1528V47.597C49.974 46.8634 49.3429 46.2687 48.5646 46.2687C47.7862 46.2687 47.1552 46.8634 47.1552 47.597V49.1622L26.7529 37.5543L47.1552 25.9468ZM90.5731 78.5201C88.8752 78.5201 87.4939 77.2181 87.4939 75.6179C87.4939 74.0176 88.8752 72.7156 90.5731 72.7156C92.2709 72.7156 93.6523 74.0176 93.6523 75.6179C93.6523 77.2181 92.2709 78.5201 90.5731 78.5201Z"/>
	</symbol>

	<symbol id="benefit4" viewBox="0 0 90 90">
		<g clip-path="url(#clip0)">
			<path d="M22.4386 67.3364L29.5502 79.1629L39.2933 50.4818L10.6118 60.2245L22.4386 67.3364ZM28.8888 73.0035L24.3383 65.4364L16.7714 60.8859L35.1226 54.6523L28.8888 73.0035Z"/>
			<path d="M46.3113 24.9772H48.9187V13.5127H54.1376V0.467285H41.0923V13.5127H46.3111V24.9772H46.3113ZM43.6997 3.07471H51.5301V10.9053H43.6997V3.07471Z" />
			<path d="M48.9186 65.642H46.3111V76.422H41.0923V89.4673H54.1376V76.4218H48.9187V65.642H48.9186ZM51.53 86.8598H43.6995V79.0292H51.53V86.8598Z" />
			<path d="M74.9998 72.509C74.8651 66.7234 73.7282 61.6416 71.6155 57.3883C69.791 53.7155 67.2444 50.6565 64.046 48.2961C60.0401 45.3396 56.0555 44.2435 54.1376 43.861V38.4571H48.9188V27.5956H46.3114V38.4571H41.0925V43.4261C39.2578 43.0002 35.925 41.9489 32.6341 39.492C26.3679 34.8142 23.0768 27.3995 22.8395 17.4449C25.8059 16.8332 28.0431 14.2013 28.0431 11.0565C28.0431 7.46004 25.117 4.534 21.5205 4.534C17.9239 4.534 14.9978 7.46004 14.9978 11.0565C14.9978 14.2115 17.2497 16.8501 20.2306 17.4505C20.3653 23.236 21.5021 28.3179 23.6148 32.5711C25.4393 36.2439 27.9859 39.3029 31.1843 41.6633C35.1902 44.6198 39.1749 45.716 41.0927 46.0984V51.5024H46.3115V63.0452H48.919V51.5024H54.1378V46.5333C55.9726 46.9592 59.3054 48.0105 62.5963 50.4674C68.8624 55.1453 72.1535 62.5599 72.3908 72.5145C69.4244 73.1262 67.1873 75.7582 67.1873 78.9029C67.1873 82.4994 70.1133 85.4254 73.7098 85.4254C77.3065 85.4254 80.2325 82.4994 80.2325 78.9029C80.2325 75.7479 77.9808 73.1094 74.9998 72.509ZM17.6049 11.0564C17.6049 8.89743 19.3612 7.14124 21.5202 7.14124C23.6791 7.14124 25.4353 8.8976 25.4353 11.0564C25.4353 13.2151 23.6793 14.9715 21.5204 14.9715C19.3614 14.9715 17.6049 13.2153 17.6049 11.0564ZM51.5302 48.8949H43.6998V41.0645H51.5302V48.8949ZM73.7098 82.8182C71.5509 82.8182 69.7947 81.0618 69.7947 78.9031C69.7947 76.7443 71.551 74.9879 73.7098 74.9879C75.8686 74.9879 77.6251 76.7443 77.6251 78.9031C77.6251 81.0618 75.8688 82.8182 73.7098 82.8182Z" />
		</g>
		<defs>
			<clipPath id="clip0">
				<rect width="89" height="89" fill="white" transform="translate(0.922119 0.467285)"/>
			</clipPath>
		</defs>
	</symbol>

	<symbol id="user" viewBox="0 0 24 29">
		<path d="M11.9997 0.772614C9.13838 0.772614 6.81055 3.10045 6.81055 5.96173C6.81055 8.82301 9.13838 11.1508 11.9997 11.1508C14.8609 11.1508 17.1888 8.82301 17.1888 5.96173C17.1888 3.10045 14.8609 0.772614 11.9997 0.772614Z" fill="white"/>
		<path d="M20.9582 19.8763C18.987 17.8749 16.3738 16.7726 13.6 16.7726H10.4C7.62624 16.7726 5.01301 17.8749 3.04181 19.8763C1.08027 21.868 0 24.497 0 27.2793C0 27.7211 0.358187 28.0793 0.8 28.0793H23.2C23.6418 28.0793 24 27.7211 24 27.2793C24 24.497 22.9197 21.868 20.9582 19.8763Z" fill="white"/>
	</symbol>

	<symbol id="arrow-right" viewBox="0 0 26 16">
		<path d="M25.0074 8.8968C25.398 8.50628 25.398 7.87311 25.0074 7.48259L18.6435 1.11863C18.253 0.728105 17.6198 0.728105 17.2293 1.11863C16.8387 1.50915 16.8387 2.14232 17.2293 2.53284L22.8861 8.1897L17.2293 13.8466C16.8387 14.2371 16.8387 14.8702 17.2293 15.2608C17.6198 15.6513 18.253 15.6513 18.6435 15.2608L25.0074 8.8968ZM0.803223 9.1897H24.3003V7.1897H0.803223V9.1897Z"/>
	</symbol>

	<symbol id="home" viewBox="0 0 21 22">
		<path d="M20.3236 10.5066L11.022 1.1714C10.8265 0.977319 10.5658 0.870575 10.2865 0.870575C10.0071 0.870575 9.74644 0.977319 9.55091 1.1714L0.258689 10.5066C-0.0485684 10.8171 -0.0206359 11.0889 0.0352292 11.215C0.0817834 11.3412 0.230757 11.5643 0.668367 11.5643H1.71118V19.8709C1.71118 20.7346 2.42812 21.4624 3.23816 21.4624H7.94945V15.8341H12.5118V21.4624H17.3534C18.1634 21.4624 18.8431 20.7152 18.8431 19.8709V11.5643H19.9232C20.3515 11.5643 20.5005 11.3412 20.5563 11.215C20.5936 11.0889 20.6308 10.8268 20.3236 10.5066Z" fill="#BDC2CA"/>
	</symbol>

	<symbol id="check" viewBox="0 0 24 18">
		<path d="M23.2733 3.2038L9.0127 17.4645C8.88708 17.5901 8.6837 17.5901 8.55838 17.4645L0.461176 9.36695C0.335858 9.24193 0.335858 9.03854 0.461176 8.91293L2.42869 6.94542C2.5543 6.8201 2.75768 6.8201 2.883 6.94542L8.78583 12.848L20.8518 0.781976C20.9777 0.656659 21.1805 0.656659 21.3061 0.781976L23.2733 2.74949C23.399 2.87481 23.399 3.0779 23.2733 3.2038Z" fill="white"/>
	</symbol>

	<symbol id="clock" viewBox="0 0 23 24">
		<path d="M11.4998 0.843231C5.14871 0.843231 0 5.9921 0 12.343C0 18.694 5.14871 23.8432 11.4998 23.8432C17.8509 23.8432 23 18.694 23 12.343C23 5.9921 17.8509 0.843231 11.4998 0.843231ZM16.4715 14.5303H11.596C11.5795 14.5303 11.5642 14.5263 11.5479 14.5257C11.5315 14.5265 11.5163 14.5303 11.4997 14.5303C11.0605 14.5303 10.7044 14.1742 10.7044 13.7349V5.61573C10.7044 5.1765 11.0605 4.82038 11.4997 4.82038C11.939 4.82038 12.2951 5.1765 12.2951 5.61573V12.9396H16.4712C16.9104 12.9396 17.2665 13.2957 17.2665 13.7349C17.2665 14.1742 16.9107 14.5303 16.4715 14.5303Z"/>
	</symbol>

	<symbol id="close" viewBox="0 0 23 23">
		<path d="M13.0101 11.0292L22.4406 1.59866C22.8045 1.24714 22.8146 0.66714 22.4631 0.303163C22.1116 -0.0608141 21.5316 -0.0709067 21.1676 0.280616C21.16 0.28797 21.1525 0.295486 21.1451 0.303163L11.7145 9.73366L2.28399 0.303109C1.92001 -0.0484131 1.34001 -0.0383205 0.988487 0.325657C0.645554 0.680722 0.645554 1.2436 0.988487 1.59866L10.419 11.0292L0.988487 20.4597C0.630791 20.8174 0.630791 21.3974 0.988487 21.7552C1.34624 22.1128 1.92624 22.1128 2.28399 21.7552L11.7145 12.3247L21.145 21.7552C21.509 22.1067 22.089 22.0966 22.4405 21.7326C22.7834 21.3775 22.7834 20.8147 22.4405 20.4597L13.0101 11.0292Z"/>
	</symbol>

	<symbol id="download" viewBox="0 0 54 51">
		<path d="M25.9062 33.9873C26.2967 34.3779 26.9299 34.3779 27.3204 33.9873L33.6843 27.6234C34.0749 27.2328 34.0749 26.5997 33.6843 26.2092C33.2938 25.8186 32.6607 25.8186 32.2701 26.2092L26.6133 31.866L20.9564 26.2092C20.5659 25.8186 19.9327 25.8186 19.5422 26.2092C19.1517 26.5997 19.1517 27.2328 19.5422 27.6234L25.9062 33.9873ZM25.6133 9.78311L25.6133 33.2802L27.6133 33.2802L27.6133 9.78311L25.6133 9.78311Z"/>
		<rect x="16.0068" y="39.2257" width="21.2122" height="1.27272" />
	</symbol>

	<symbol id="arrow-down" viewBox="0 0 10 7">
		<path d="M9.68945 1.78063L8.62819 0.719406L5.18945 4.15814L1.75071 0.719406L0.689453 1.78063L5.18945 6.28063L9.68945 1.78063Z"/>
	</symbol>

	<symbol id="" viewBox="">
	</symbol>

</svg>
